<mxfile host="app.diagrams.net" modified="2021-03-06T08:29:04.412Z" agent="5.0 (Windows NT 10.0; Win64; x64) AppleWebKit/537.36 (KHTML, like Gecko) Chrome/88.0.4324.190 Safari/537.36" etag="BGIqzj0xhopsbA8ztvyB" version="14.4.4" type="github">
  <diagram name="Page-1" id="64c3da0e-402f-94eb-ee01-a36477274f13">
    <mxGraphModel dx="1731" dy="944" grid="1" gridSize="10" guides="1" tooltips="1" connect="1" arrows="1" fold="1" page="1" pageScale="1" pageWidth="827" pageHeight="1169" background="#ffffff" math="0" shadow="0">
      <root>
        <mxCell id="0" />
        <mxCell id="1" parent="0" />
        <mxCell id="P74jk3kMJ4rALg1ZMJZv-235" value="文本检测方法" style="rounded=1;whiteSpace=wrap;html=1;" vertex="1" parent="1">
          <mxGeometry x="70" y="440" width="120" height="60" as="geometry" />
        </mxCell>
        <mxCell id="P74jk3kMJ4rALg1ZMJZv-236" value="" style="shape=curlyBracket;whiteSpace=wrap;html=1;rounded=1;" vertex="1" parent="1">
          <mxGeometry x="200" y="220" width="20" height="510" as="geometry" />
        </mxCell>
        <mxCell id="P74jk3kMJ4rALg1ZMJZv-238" value="基于区域建议的方法" style="rounded=1;whiteSpace=wrap;html=1;" vertex="1" parent="1">
          <mxGeometry x="240" y="203" width="120" height="30" as="geometry" />
        </mxCell>
        <mxCell id="P74jk3kMJ4rALg1ZMJZv-239" value="基于语义分割的方法" style="rounded=1;whiteSpace=wrap;html=1;" vertex="1" parent="1">
          <mxGeometry x="240" y="460" width="120" height="30" as="geometry" />
        </mxCell>
        <mxCell id="P74jk3kMJ4rALg1ZMJZv-240" value="基于区域建议与语义分割的组合方法" style="rounded=1;whiteSpace=wrap;html=1;" vertex="1" parent="1">
          <mxGeometry x="240" y="710" width="120" height="30" as="geometry" />
        </mxCell>
        <mxCell id="P74jk3kMJ4rALg1ZMJZv-258" value="" style="group" vertex="1" connectable="0" parent="1">
          <mxGeometry x="380" y="120" width="330" height="227" as="geometry" />
        </mxCell>
        <mxCell id="P74jk3kMJ4rALg1ZMJZv-241" value="" style="rounded=0;whiteSpace=wrap;html=1;" vertex="1" parent="P74jk3kMJ4rALg1ZMJZv-258">
          <mxGeometry width="330" height="227" as="geometry" />
        </mxCell>
        <mxCell id="P74jk3kMJ4rALg1ZMJZv-249" value="" style="rounded=0;whiteSpace=wrap;html=1;dashed=1;fillColor=none;" vertex="1" parent="P74jk3kMJ4rALg1ZMJZv-258">
          <mxGeometry x="14" y="97" width="306" height="53" as="geometry" />
        </mxCell>
        <mxCell id="P74jk3kMJ4rALg1ZMJZv-250" value="" style="rounded=0;whiteSpace=wrap;html=1;dashed=1;fillColor=none;" vertex="1" parent="P74jk3kMJ4rALg1ZMJZv-258">
          <mxGeometry x="14" y="162" width="306" height="50" as="geometry" />
        </mxCell>
        <mxCell id="P74jk3kMJ4rALg1ZMJZv-242" value="图像" style="whiteSpace=wrap;html=1;aspect=fixed;fillColor=#d5e8d4;strokeColor=#82b366;" vertex="1" parent="P74jk3kMJ4rALg1ZMJZv-258">
          <mxGeometry x="20" y="17" width="60" height="60" as="geometry" />
        </mxCell>
        <mxCell id="P74jk3kMJ4rALg1ZMJZv-243" value="生成候选框" style="ellipse;whiteSpace=wrap;html=1;" vertex="1" parent="P74jk3kMJ4rALg1ZMJZv-258">
          <mxGeometry x="100" y="30" width="70" height="30" as="geometry" />
        </mxCell>
        <mxCell id="P74jk3kMJ4rALg1ZMJZv-257" value="" style="edgeStyle=none;rounded=0;orthogonalLoop=1;jettySize=auto;html=1;" edge="1" parent="P74jk3kMJ4rALg1ZMJZv-258" source="P74jk3kMJ4rALg1ZMJZv-242" target="P74jk3kMJ4rALg1ZMJZv-243">
          <mxGeometry relative="1" as="geometry" />
        </mxCell>
        <mxCell id="P74jk3kMJ4rALg1ZMJZv-244" value="文本/组件候选框" style="rounded=1;whiteSpace=wrap;html=1;" vertex="1" parent="P74jk3kMJ4rALg1ZMJZv-258">
          <mxGeometry x="200" y="24" width="100" height="42" as="geometry" />
        </mxCell>
        <mxCell id="P74jk3kMJ4rALg1ZMJZv-256" value="" style="edgeStyle=none;rounded=0;orthogonalLoop=1;jettySize=auto;html=1;" edge="1" parent="P74jk3kMJ4rALg1ZMJZv-258" source="P74jk3kMJ4rALg1ZMJZv-243" target="P74jk3kMJ4rALg1ZMJZv-244">
          <mxGeometry relative="1" as="geometry" />
        </mxCell>
        <mxCell id="P74jk3kMJ4rALg1ZMJZv-252" style="rounded=0;orthogonalLoop=1;jettySize=auto;html=1;exitX=0;exitY=0.5;exitDx=0;exitDy=0;entryX=0.412;entryY=0.509;entryDx=0;entryDy=0;entryPerimeter=0;" edge="1" parent="P74jk3kMJ4rALg1ZMJZv-258" source="P74jk3kMJ4rALg1ZMJZv-245" target="P74jk3kMJ4rALg1ZMJZv-249">
          <mxGeometry relative="1" as="geometry" />
        </mxCell>
        <mxCell id="P74jk3kMJ4rALg1ZMJZv-245" value="分类器/边框回归" style="ellipse;whiteSpace=wrap;html=1;" vertex="1" parent="P74jk3kMJ4rALg1ZMJZv-258">
          <mxGeometry x="190" y="104" width="120" height="40" as="geometry" />
        </mxCell>
        <mxCell id="P74jk3kMJ4rALg1ZMJZv-255" value="" style="edgeStyle=none;rounded=0;orthogonalLoop=1;jettySize=auto;html=1;" edge="1" parent="P74jk3kMJ4rALg1ZMJZv-258" source="P74jk3kMJ4rALg1ZMJZv-244" target="P74jk3kMJ4rALg1ZMJZv-245">
          <mxGeometry relative="1" as="geometry" />
        </mxCell>
        <mxCell id="P74jk3kMJ4rALg1ZMJZv-246" value="组件框" style="rounded=1;whiteSpace=wrap;html=1;" vertex="1" parent="P74jk3kMJ4rALg1ZMJZv-258">
          <mxGeometry x="200" y="167" width="100" height="40" as="geometry" />
        </mxCell>
        <mxCell id="P74jk3kMJ4rALg1ZMJZv-254" value="" style="edgeStyle=none;rounded=0;orthogonalLoop=1;jettySize=auto;html=1;" edge="1" parent="P74jk3kMJ4rALg1ZMJZv-258" source="P74jk3kMJ4rALg1ZMJZv-245" target="P74jk3kMJ4rALg1ZMJZv-246">
          <mxGeometry relative="1" as="geometry" />
        </mxCell>
        <mxCell id="P74jk3kMJ4rALg1ZMJZv-247" value="组件连接" style="ellipse;whiteSpace=wrap;html=1;" vertex="1" parent="P74jk3kMJ4rALg1ZMJZv-258">
          <mxGeometry x="20" y="167" width="80" height="40" as="geometry" />
        </mxCell>
        <mxCell id="P74jk3kMJ4rALg1ZMJZv-251" style="edgeStyle=orthogonalEdgeStyle;rounded=0;orthogonalLoop=1;jettySize=auto;html=1;exitX=0;exitY=0.5;exitDx=0;exitDy=0;entryX=1;entryY=0.5;entryDx=0;entryDy=0;" edge="1" parent="P74jk3kMJ4rALg1ZMJZv-258" source="P74jk3kMJ4rALg1ZMJZv-246" target="P74jk3kMJ4rALg1ZMJZv-247">
          <mxGeometry relative="1" as="geometry" />
        </mxCell>
        <mxCell id="P74jk3kMJ4rALg1ZMJZv-248" value="文本框" style="rounded=0;whiteSpace=wrap;html=1;dashed=1;fillColor=#dae8fc;strokeColor=#6c8ebf;" vertex="1" parent="P74jk3kMJ4rALg1ZMJZv-258">
          <mxGeometry x="20" y="107" width="120" height="37" as="geometry" />
        </mxCell>
        <mxCell id="P74jk3kMJ4rALg1ZMJZv-253" style="edgeStyle=none;rounded=0;orthogonalLoop=1;jettySize=auto;html=1;exitX=0.5;exitY=0;exitDx=0;exitDy=0;entryX=0.331;entryY=1.018;entryDx=0;entryDy=0;entryPerimeter=0;" edge="1" parent="P74jk3kMJ4rALg1ZMJZv-258" source="P74jk3kMJ4rALg1ZMJZv-247" target="P74jk3kMJ4rALg1ZMJZv-248">
          <mxGeometry relative="1" as="geometry" />
        </mxCell>
      </root>
    </mxGraphModel>
  </diagram>
</mxfile>
